<?xml version="1.0" encoding="UTF-8"?>
<svg width="25px" height="24px" viewBox="0 0 25 24" version="1.1" xmlns="http://www.w3.org/2000/svg" xmlns:xlink="http://www.w3.org/1999/xlink">
    <title>编组 63</title>
    <g id="定稿" stroke="none" stroke-width="1" fill="none" fill-rule="evenodd">
        <g id="切图" transform="translate(-837.000000, -352.000000)">
            <g id="编组-63" transform="translate(837.500000, 352.000000)">
                <g id="编组-62" transform="translate(4.800000, 4.800000)">
                    <circle id="椭圆形" stroke="#B8B8B8" stroke-width="1.2" cx="7.2" cy="7.2" r="6.6"></circle>
                    <path d="M8.07736303,10.7192292 C8.07736303,11.1695245 7.71231074,11.5345877 7.26200457,11.5345877 C6.81168753,11.5345877 6.44664612,11.1695245 6.44664612,10.7192292 C6.44664612,10.2689339 6.81168753,9.90387075 7.26200457,9.90387075 C7.71231074,9.90387075 8.07736303,10.2689339 8.07736303,10.7192292 Z M5.68575361,6.09886463 C5.68575361,5.36190018 6.32182018,4.65839803 7.26211329,4.65839803 C8.20241727,4.65839803 8.83847297,5.36190018 8.83847297,6.09886463 C8.83847297,6.63284832 8.54493305,6.90565639 8.03881288,7.21312262 C7.98232485,7.24744378 7.91717227,7.28527641 7.84747543,7.32575081 L7.8474102,7.32579429 C7.64824531,7.44145561 7.41197617,7.578675 7.23434761,7.71706851 C6.97087812,7.92235402 6.66418375,8.2535635 6.66418375,8.76236892 C6.66419463,9.09259996 6.93189311,9.36029845 7.26212416,9.36029845 C7.5908332,9.36029845 7.85759675,9.09504604 7.86003195,8.76690231 L7.86061901,8.76595649 C7.87005542,8.75106261 7.89798417,8.7160022 7.96935521,8.66039475 C8.07968952,8.57442336 8.20254773,8.50322626 8.36626083,8.40835115 L8.36630432,8.40831853 C8.45165604,8.35885345 8.54812926,8.30295248 8.65970291,8.23516901 C9.24072734,7.8821949 10.0342994,7.29887659 10.0342994,6.09886463 C10.0342994,4.66153988 8.82225277,3.46253896 7.26211329,3.46253896 C5.70198468,3.46253896 4.48989454,4.66153988 4.48989454,6.09886463 C4.48989454,6.42909568 4.7576039,6.69679417 5.08782408,6.69679417 C5.41805512,6.69679417 5.68575361,6.42909568 5.68575361,6.09886463 Z" id="Shape" fill="#B8B8B8"></path>
                </g>
            </g>
        </g>
    </g>
</svg>